<svg id="Layer_1" data-name="Layer 1" xmlns="http://www.w3.org/2000/svg" viewBox="0 0 64 64"><defs><style>.cls-1{fill:#d9ebf4;}.cls-2{fill:#c6e2f4;}.cls-3{fill:#2553ba;}.cls-4{fill:#194aba;}.cls-5{fill:#1044ad;}.cls-6{fill:#ba78dd;}.cls-7{fill:#4a76ce;}.cls-8{fill:#fff;}.cls-34,.cls-9{fill:none;stroke:#041256;stroke-linecap:round;stroke-linejoin:round;}.cls-9{stroke-width:2px;}.cls-10{fill:#041256;}.cls-11{fill:#f2e0cc;}.cls-12{fill:#f9f1dc;}.cls-13{fill:#fffbf3;}.cls-14{fill:#e2c7af;}.cls-15{fill:#d8baa3;}.cls-16{fill:#ffa022;}.cls-17{fill:#f98e0d;}.cls-18{fill:#ed810c;}.cls-19{fill:#f7780f;}.cls-20{fill:#fcc947;}.cls-21{fill:#efe5d8;}.cls-22{fill:#cc487e;}.cls-23{fill:#b73d74;}.cls-24{fill:#a3316a;}.cls-25{fill:#61e29f;}.cls-26{fill:#78efad;}.cls-27{fill:#50d190;}.cls-28{fill:#7f98ea;}.cls-29{fill:#7392ea;}.cls-30{fill:#a3b7ef;}.cls-31{fill:#6988e0;}.cls-32{fill:#5475d3;}.cls-33{fill:#b0d0e2;}</style></defs><title>innovation, innovative, review, dollar, settings, chart</title><path class="cls-1" d="M54.45,38.38h0a.65.65,0,0,0-.65-.65H50.32a1.09,1.09,0,0,0-1.09,1.09h0a1.09,1.09,0,0,0,1.09,1.09h1.74a.65.65,0,0,1,.65.65h0a.65.65,0,0,0,.65.65h3.48a1.09,1.09,0,0,0,1.09-1.09h0A1.09,1.09,0,0,0,56.84,39H55.1A.65.65,0,0,1,54.45,38.38Z"/><path class="cls-1" d="M48.15,43.29h0a.38.38,0,0,1,.38-.38h2a.63.63,0,0,1,.63.63h0a.63.63,0,0,1-.63.63h-1a.38.38,0,0,0-.38.38h0a.38.38,0,0,1-.38.38h-2a.63.63,0,0,1-.63-.63h0a.63.63,0,0,1,.63-.63h1A.38.38,0,0,0,48.15,43.29Z"/><circle class="cls-1" cx="39.75" cy="45.37" r="0.91"/><circle class="cls-1" cx="53.59" cy="45.57" r="0.88"/><circle class="cls-1" cx="57.93" cy="47.36" r="1.41"/><circle class="cls-1" cx="58.78" cy="36.46" r="0.46"/><circle class="cls-1" cx="44.47" cy="47.36" r="0.56"/><circle class="cls-1" cx="48.66" cy="49.1" r="1.46"/><circle class="cls-1" cx="42.98" cy="43.42" r="0.5"/><path class="cls-1" d="M7.59,6.06h0a.5.5,0,0,1,.5-.5h2.67a.83.83,0,0,1,.83.83h0a.83.83,0,0,1-.83.83H9.43a.5.5,0,0,0-.5.5h0a.5.5,0,0,1-.5.5H5.76a.83.83,0,0,1-.83-.83h0a.83.83,0,0,1,.83-.83H7.09A.5.5,0,0,0,7.59,6.06Z"/><path class="cls-1" d="M12.43,9.82h0a.29.29,0,0,0-.29-.29H10.59a.48.48,0,0,0-.48.48h0a.48.48,0,0,0,.48.48h.77a.29.29,0,0,1,.29.29h0a.29.29,0,0,0,.29.29h1.55A.48.48,0,0,0,14,10.6h0a.48.48,0,0,0-.48-.48h-.77A.29.29,0,0,1,12.43,9.82Z"/><circle class="cls-1" cx="18.88" cy="11.42" r="0.7"/><circle class="cls-1" cx="8.25" cy="11.58" r="0.67"/><circle class="cls-1" cx="4.92" cy="12.95" r="1.08"/><circle class="cls-1" cx="4.27" cy="4.58" r="0.35"/><circle class="cls-1" cx="15.25" cy="12.95" r="0.43"/><circle class="cls-1" cx="12.04" cy="14.28" r="1.12"/><circle class="cls-1" cx="16.4" cy="9.92" r="0.39"/><path class="cls-2" d="M3,61V33.71a.89.89,0,0,1,.89-.89h.93a.89.89,0,0,1,.89.89V36a.89.89,0,0,0,.89.89h3a.89.89,0,0,1,.89.89V48.15a.89.89,0,0,0,.89.89h1.85a.89.89,0,0,1,.89.89v6.54a.89.89,0,0,0,.89.89h.9a.89.89,0,0,0,.89-.89V55.33a.89.89,0,0,1,.89-.89h.81a.89.89,0,0,0,.89-.89V52a.89.89,0,0,1,.89-.89h4.78a.89.89,0,0,0,.89-.89v-.91a.89.89,0,0,1,.89-.89h15.4a.89.89,0,0,1,.63.26L47,52.83a.89.89,0,0,0,.63.26h1.24a.89.89,0,0,1,.89.89v3a.89.89,0,0,0,.89.89h.51A.89.89,0,0,0,52.1,57v-.52a.89.89,0,0,1,.89-.89h.65a.89.89,0,0,0,.89-.89.89.89,0,0,1,.89-.89H60a.89.89,0,0,1,.89.89V61Z"/><path class="cls-3" d="M5.66,44.42a1.64,1.64,0,0,1,1.58,1.21l1.12,4.05A7.88,7.88,0,0,0,16,55.45h4.16a1.34,1.34,0,0,1,1.32,1.11L22.21,61H48.39l-1.68-4.45a41.32,41.32,0,0,1-2-20.34,20.63,20.63,0,0,0,0-5.27A20.26,20.26,0,0,0,26.14,13.22C14.94,12.43,6,20.86,4.54,31.56h0L3.07,41.41A2.62,2.62,0,0,0,5.66,44.42Z"/><path class="cls-4" d="M46.71,56.54a37.23,37.23,0,0,1-1.61-5.66l-2.19-2.19a.89.89,0,0,0-.63-.26H26.88a.89.89,0,0,0-.89.89v.91a.89.89,0,0,1-.89.89H20.31a.89.89,0,0,0-.89.89v1.53a.89.89,0,0,1-.89.89h-.81a.89.89,0,0,0-.89.89v.12h3.29a1.34,1.34,0,0,1,1.32,1.11L22.21,61H48.39Z"/><path class="cls-4" d="M9.53,44.52l12.32,5.55C27,52.61,30,56,30.65,61H48.39l-1.47-3.89a39.58,39.58,0,0,1-2.29-20.38,20.59,20.59,0,0,0,.13-5.79A20.26,20.26,0,0,0,26.14,13.22c-.38,0-.75,0-1.12,0l-.24.09a9.75,9.75,0,0,1-1.7,15.14L22,29.1a5.2,5.2,0,0,0-2.43,4.4v1.56a5.38,5.38,0,0,1-4.86,5.47c-2.41.15-6.75.11-7.25-6.43h0L5.66,44.42A22.26,22.26,0,0,1,9.53,44.52Z"/><path class="cls-5" d="M46.92,57.11h0l-.21-.56a36,36,0,0,1-1.31-4.28c-.1-.39-.18-.79-.27-1.19l0-.2-2.19-2.19a.89.89,0,0,0-.63-.26H26.88a.89.89,0,0,0-.89.89v.91a.89.89,0,0,1-.89.89H23.78c4,2.41,6.34,5.55,6.87,9.87H48.39Z"/><path class="cls-5" d="M26.14,13.22c-.38,0-.75,0-1.12,0l-.24.09a9.75,9.75,0,0,1-1.7,15.14L22,29.1a5.2,5.2,0,0,0-2.43,4.4v1.56a5.38,5.38,0,0,1-4.86,5.47l-.75,0h5a17.55,17.55,0,0,0,12.41-5.14h0a17.55,17.55,0,0,1,12.41-5.14h.91A20.26,20.26,0,0,0,26.14,13.22Z"/><path class="cls-6" d="M46.71,56.54a41.32,41.32,0,0,1-2-20.34,20.64,20.64,0,0,0,0-5.27A20.05,20.05,0,0,0,23.67,13.21h.42A20.26,20.26,0,0,1,42.7,30.94a20.64,20.64,0,0,1,0,5.27,41.32,41.32,0,0,0,2,20.34L46.33,61h2.06Z"/><path class="cls-7" d="M11.68,49.68l-1.1-4A1.7,1.7,0,0,0,9,44.42a2.62,2.62,0,0,1-2.61-3l1.05-7.05a1.43,1.43,0,0,0-1.32-1.67H4.37l-1.3,8.72a2.62,2.62,0,0,0,2.61,3,1.7,1.7,0,0,1,1.59,1.29l1.1,4A7.88,7.88,0,0,0,16,55.45h3.31A7.88,7.88,0,0,1,11.68,49.68Z"/><path class="cls-7" d="M26.41,13.24C15.17,12.3,6.15,20.65,4.58,31.32l2,0A1.56,1.56,0,0,0,8,30c1.86-9,9.1-16.09,18.36-16.8Z"/><path class="cls-7" d="M28.69,13.6c.28.06.57.11.85.18l-.84-.18Z"/><path class="cls-7" d="M30.76,14.12c.42.14.84.28,1.25.44C31.6,14.4,31.18,14.25,30.76,14.12Z"/><path class="cls-7" d="M29.84,13.86l.92.26C30.46,14,30.15,13.94,29.84,13.86Z"/><path class="cls-7" d="M29.54,13.78l.3.08Z"/><path class="cls-7" d="M39.12,19.27c.3.31.6.62.88,1C39.72,19.89,39.43,19.58,39.12,19.27Z"/><path class="cls-7" d="M42.29,23.48c.17.29.34.58.49.89C42.63,24.06,42.46,23.77,42.29,23.48Z"/><path class="cls-7" d="M41.35,22c.21.3.42.61.61.93C41.77,22.58,41.56,22.28,41.35,22Z"/><path class="cls-7" d="M44.47,29.2c0-.21-.11-.41-.16-.62C44.37,28.79,44.43,29,44.47,29.2Z"/><path class="cls-7" d="M43.78,26.76c.09.25.19.5.26.76C44,27.27,43.87,27,43.78,26.76Z"/><path class="cls-7" d="M43.11,25.08c.13.28.26.55.37.83C43.36,25.63,43.23,25.35,43.11,25.08Z"/><path class="cls-7" d="M40.29,20.57c.26.31.51.62.75.95C40.8,21.19,40.55,20.88,40.29,20.57Z"/><path class="cls-7" d="M33.57,15.25q.72.35,1.41.76Q34.29,15.6,33.57,15.25Z"/><path class="cls-7" d="M32,14.56q.77.3,1.51.67Q32.79,14.86,32,14.56Z"/><path class="cls-7" d="M35.07,16.07q.66.4,1.29.84C35.94,16.61,35.51,16.33,35.07,16.07Z"/><path class="cls-7" d="M36.5,17q.6.43,1.16.9C37.29,17.6,36.9,17.3,36.5,17Z"/><path class="cls-7" d="M38.88,19c-.33-.33-.67-.63-1-.94C38.21,18.38,38.55,18.69,38.88,19Z"/><path class="cls-8" d="M9.92,49.68,8.79,45.63a1.64,1.64,0,0,0-1.58-1.21,2.62,2.62,0,0,1-2.6-3l1.47-9.86h0A21.39,21.39,0,0,1,17.53,15.2a19.42,19.42,0,0,1,5.07-1.92C13.1,14.28,5.84,22,4.54,31.56h0L3.07,41.41a2.62,2.62,0,0,0,2.6,3,1.64,1.64,0,0,1,1.58,1.21l1.12,4.05A7.88,7.88,0,0,0,16,55.45h1.55A7.88,7.88,0,0,1,9.92,49.68Z"/><path class="cls-8" d="M21.66,55.45H20.12a1.34,1.34,0,0,1,1.32,1.11L22.21,61h1.55L23,56.56A1.34,1.34,0,0,0,21.66,55.45Z"/><path class="cls-9" d="M48.39,61l-1.68-4.45a41.32,41.32,0,0,1-2-20.34,20.63,20.63,0,0,0,0-5.27A20.26,20.26,0,0,0,26.14,13.22C14.94,12.43,6,20.86,4.54,31.56h0L3.07,41.41a2.62,2.62,0,0,0,2.6,3,1.64,1.64,0,0,1,1.58,1.21l1.12,4.05A7.88,7.88,0,0,0,16,55.45h4.16a1.34,1.34,0,0,1,1.32,1.11L22.21,61"/><path class="cls-10" d="M20.12,54.45l.82,0a8.61,8.61,0,0,1,.91.19,8.09,8.09,0,0,1,1.7.66,7.89,7.89,0,0,1,1.46,1,11,11,0,0,1,1.18,1.22,10.69,10.69,0,0,0-1.47-.74,7,7,0,0,0-1.53-.4,6.68,6.68,0,0,0-1.52-.05,6.92,6.92,0,0,0-.73.1l-.82,0a1,1,0,0,1,0-2Z"/><path class="cls-9" d="M15.46,36.6a2.92,2.92,0,0,1-4.14,0"/><line class="cls-9" x1="2.99" y1="60.99" x2="60.99" y2="60.99"/><circle class="cls-11" cx="45.53" cy="18.49" r="15.48"/><circle class="cls-12" cx="45.53" cy="18.49" r="10.84"/><circle class="cls-13" cx="45.53" cy="18.49" r="8.67"/><path class="cls-14" d="M44.89,33.94a20.83,20.83,0,0,0-.13-3A20.26,20.26,0,0,0,30.69,14.09a15.45,15.45,0,0,0,14.2,19.85Z"/><path class="cls-11" d="M35,16a10.8,10.8,0,0,0,9.5,13.25A20.22,20.22,0,0,0,35,16Z"/><path class="cls-12" d="M43.86,27a20.22,20.22,0,0,0-6.92-9.64A8.6,8.6,0,0,0,43.86,27Z"/><path class="cls-15" d="M31,13.14a15.31,15.31,0,0,0-.57,1.91,19.14,19.14,0,0,1,13.32,16,20,20,0,0,1,.12,2.83,15.62,15.62,0,0,0,1.64.09l.36,0a21.91,21.91,0,0,0-.14-3.14A21.14,21.14,0,0,0,31,13.14Z"/><circle class="cls-9" cx="45.53" cy="18.49" r="15.48"/><circle class="cls-12" cx="45.53" cy="6.25" r="0.39"/><circle class="cls-14" cx="45.53" cy="30.73" r="0.39"/><circle class="cls-12" cx="39.41" cy="7.89" r="0.39" transform="translate(1.34 20.76) rotate(-30)"/><circle class="cls-12" cx="51.65" cy="29.09" r="0.39" transform="translate(-7.63 29.72) rotate(-30)"/><circle class="cls-12" cx="34.93" cy="12.37" r="0.39" transform="translate(6.75 36.43) rotate(-60)"/><circle class="cls-12" cx="56.13" cy="24.61" r="0.39" transform="translate(6.75 60.91) rotate(-60)"/><circle class="cls-11" cx="33.29" cy="18.49" r="0.39"/><circle class="cls-12" cx="57.77" cy="18.49" r="0.39"/><circle class="cls-11" cx="34.93" cy="24.61" r="0.39" transform="translate(-7.63 20.76) rotate(-30)"/><circle class="cls-12" cx="56.13" cy="12.37" r="0.39" transform="translate(1.34 29.72) rotate(-30)"/><circle class="cls-11" cx="39.41" cy="29.09" r="0.39" transform="translate(-5.49 48.67) rotate(-60)"/><circle class="cls-12" cx="51.65" cy="7.89" r="0.39" transform="translate(18.99 48.67) rotate(-60)"/><circle class="cls-12" cx="42.36" cy="6.67" r="0.39" transform="translate(-0.28 11.19) rotate(-14.99)"/><circle class="cls-12" cx="48.7" cy="30.31" r="0.39" transform="translate(-6.19 13.64) rotate(-15)"/><circle class="cls-12" cx="36.87" cy="9.83" r="0.39" transform="translate(3.85 28.95) rotate(-45)"/><circle class="cls-12" cx="54.18" cy="27.15" r="0.39" transform="translate(-3.32 46.26) rotate(-45)"/><circle class="cls-14" cx="33.7" cy="15.32" r="0.39" transform="translate(10.18 43.91) rotate(-75)"/><circle class="cls-12" cx="57.35" cy="21.66" r="0.39" transform="translate(21.59 71.45) rotate(-75)"/><circle class="cls-11" cx="33.7" cy="21.66" r="0.39" transform="translate(-4.46 9.46) rotate(-15)"/><circle class="cls-12" cx="57.35" cy="15.32" r="0.39" transform="translate(-2.01 15.37) rotate(-15)"/><circle class="cls-11" cx="36.87" cy="27.15" r="0.39" transform="translate(-8.4 34.02) rotate(-45)"/><circle class="cls-12" cx="54.18" cy="9.83" r="0.39" transform="translate(8.92 41.19) rotate(-45)"/><circle class="cls-11" cx="42.36" cy="30.31" r="0.39" transform="translate(2.11 63.38) rotate(-75)"/><circle class="cls-12" cx="48.7" cy="6.67" r="0.39" transform="translate(29.66 51.98) rotate(-75)"/><circle class="cls-16" cx="45.53" cy="18.49" r="8.11"/><path class="cls-17" d="M51.26,12.75A8.11,8.11,0,1,1,39.79,24.23"/><circle class="cls-18" cx="45.53" cy="18.49" r="5.56"/><path class="cls-17" d="M41.59,14.56a5.56,5.56,0,0,0,0,7.87l7.87-7.87A5.56,5.56,0,0,0,41.59,14.56Z"/><path class="cls-19" d="M42.32,15.28a5.56,5.56,0,0,1,7.07-.65l.07-.07a5.56,5.56,0,1,0-7.87,7.87l.07-.07A5.56,5.56,0,0,1,42.32,15.28Z"/><path class="cls-20" d="M39.65,15.14a6.6,6.6,0,0,1,5.88-3.06,6.24,6.24,0,0,0-5.25,3.41.36.36,0,1,1-.64-.31l0,0Z"/><path class="cls-20" d="M39.32,17.26h-.09a.36.36,0,0,1-.26-.44c0-.12.06-.23.1-.35a.36.36,0,1,1,.68.21c0,.1-.06.21-.09.32A.36.36,0,0,1,39.32,17.26Z"/><path class="cls-20" d="M39.13,18.85a.36.36,0,0,1-.36-.36c0-.13,0-.25,0-.38a.37.37,0,0,1,.38-.34.36.36,0,0,1,.34.38c0,.11,0,.22,0,.34A.36.36,0,0,1,39.13,18.85Z"/><path class="cls-16" d="M51.4,21.77a6.6,6.6,0,0,1-5.88,3.06,6.24,6.24,0,0,0,5.25-3.41.36.36,0,1,1,.64.31l0,0Z"/><path class="cls-16" d="M51.73,19.66h.09a.36.36,0,0,1,.26.44c0,.12-.06.23-.1.35a.36.36,0,1,1-.68-.21c0-.1.06-.21.09-.32A.36.36,0,0,1,51.73,19.66Z"/><path class="cls-16" d="M51.93,18.07a.36.36,0,0,1,.36.36c0,.13,0,.25,0,.38a.37.37,0,0,1-.38.34.36.36,0,0,1-.34-.38c0-.11,0-.22,0-.34A.36.36,0,0,1,51.93,18.07Z"/><circle class="cls-9" cx="45.53" cy="18.49" r="8.11"/><path class="cls-16" d="M45.3,17.85a.7.7,0,0,1-.7-.6.66.66,0,0,1,.63-.72.7.7,0,0,1,.69.69.64.64,0,0,0,.74.6.67.67,0,0,0,.54-.71,1.93,1.93,0,0,0-1.1-1.67.36.36,0,0,1-.2-.32.66.66,0,0,0-.53-.67.64.64,0,0,0-.75.63v.28a2,2,0,0,0-.81,3.21,1.54,1.54,0,0,0,1.39.56.66.66,0,1,1-.1,1.3.68.68,0,0,1-.51-.66.64.64,0,0,0-.74-.62.67.67,0,0,0-.54.71,1.93,1.93,0,0,0,1.1,1.67.36.36,0,0,1,.2.32.66.66,0,0,0,.53.67.64.64,0,0,0,.75-.63v-.28a1.94,1.94,0,0,0-.6-3.76Z"/><path class="cls-18" d="M45.9,18a.7.7,0,0,1-.7-.6.66.66,0,0,1,.63-.72.7.7,0,0,1,.69.69.64.64,0,0,0,.74.6.67.67,0,0,0,.54-.71,1.93,1.93,0,0,0-1.1-1.67.36.36,0,0,1-.2-.32.66.66,0,0,0-.53-.67.64.64,0,0,0-.75.63v.28a2,2,0,0,0-.81,3.21,1.54,1.54,0,0,0,1.4.56.66.66,0,1,1-.1,1.3.68.68,0,0,1-.51-.66.64.64,0,0,0-.74-.62.67.67,0,0,0-.54.71A1.93,1.93,0,0,0,45,21.71a.36.36,0,0,1,.2.32.66.66,0,0,0,.53.67.64.64,0,0,0,.75-.63v-.28A1.94,1.94,0,0,0,45.9,18Z"/><path class="cls-21" d="M45.57,17.85a.7.7,0,0,1-.7-.6.66.66,0,0,1,.63-.72.7.7,0,0,1,.69.69.64.64,0,0,0,.74.6.67.67,0,0,0,.54-.71,1.93,1.93,0,0,0-1.1-1.67.36.36,0,0,1-.2-.32.66.66,0,0,0-.53-.67.64.64,0,0,0-.75.63v.28a2,2,0,0,0-.81,3.21,1.54,1.54,0,0,0,1.39.56.66.66,0,1,1-.1,1.3.68.68,0,0,1-.51-.66.64.64,0,0,0-.74-.62.67.67,0,0,0-.54.71,1.93,1.93,0,0,0,1.1,1.67.36.36,0,0,1,.2.32.66.66,0,0,0,.53.67.64.64,0,0,0,.75-.63v-.28a1.94,1.94,0,0,0-.6-3.76Z"/><circle class="cls-22" cx="48.92" cy="52.39" r="8.61"/><circle class="cls-23" cx="48.92" cy="52.39" r="6.89"/><path class="cls-23" d="M48.92,61a8.61,8.61,0,0,0,7.14-13.41H48.92Z"/><path class="cls-24" d="M53.83,47.58H48.92V59.27a6.88,6.88,0,0,0,4.92-11.69Z"/><circle class="cls-9" cx="48.92" cy="52.39" r="8.61"/><path class="cls-25" d="M48.92,42v9.72a.66.66,0,0,0,.66.66H59.3A1.69,1.69,0,0,0,61,50.48,12.23,12.23,0,0,0,50.82,40.31,1.69,1.69,0,0,0,48.92,42Z"/><path class="cls-26" d="M56.87,46.54l1.52-.88a11.61,11.61,0,0,0-7.66-4.76A1.59,1.59,0,0,0,49,42.17a1.49,1.49,0,0,1,.53,0A11.6,11.6,0,0,1,56.87,46.54Z"/><path class="cls-26" d="M57.46,47.41a11.51,11.51,0,0,1,1.7,4.4,1.49,1.49,0,0,1,0,.53,1.59,1.59,0,0,0,1.26-1.77,11.5,11.5,0,0,0-1.46-4Z"/><path class="cls-27" d="M48.92,43.78v7.94a.66.66,0,0,0,.66.66h7.94A8.61,8.61,0,0,0,48.92,43.78Z"/><path class="cls-9" d="M48.92,42V52.39H59.3A1.69,1.69,0,0,0,61,50.46,12.23,12.23,0,0,0,50.84,40.31,1.69,1.69,0,0,0,48.92,42Z"/><rect class="cls-7" x="24.76" y="45" width="11.08" height="0.91" rx="0.35" ry="0.35"/><rect class="cls-7" x="24.76" y="47.46" width="11.08" height="0.91" rx="0.35" ry="0.35"/><rect class="cls-7" x="24.76" y="49.93" width="3.81" height="0.91" rx="0.35" ry="0.35"/><path class="cls-28" d="M33,13.93a6.49,6.49,0,0,0,0-.72,1,1,0,0,1,.35-.9l2.19-1.94A1.06,1.06,0,0,0,35.74,9l-.53-.92A1.06,1.06,0,0,0,34,7.65l-2.76.92a1,1,0,0,1-1-.14,6.81,6.81,0,0,0-1.3-.75,1,1,0,0,1-.6-.75l-.58-2.85a1.06,1.06,0,0,0-1-.85H25.66a1.06,1.06,0,0,0-1,.85L24,6.93a1,1,0,0,1-.6.75,6.82,6.82,0,0,0-1.3.75,1,1,0,0,1-1,.14l-2.76-.92a1.06,1.06,0,0,0-1.26.48L16.64,9a1.06,1.06,0,0,0,.22,1.33L19,12.32a1,1,0,0,1,.35.9,6.49,6.49,0,0,0,0,.72,6.58,6.58,0,0,0,0,.75,1,1,0,0,1-.35.9l-2.19,1.94a1.06,1.06,0,0,0-.22,1.33l.53.92a1.06,1.06,0,0,0,1.26.48l2.8-.93a1,1,0,0,1,.95.14,6.82,6.82,0,0,0,1.26.72,1,1,0,0,1,.6.75l.59,2.89a1.06,1.06,0,0,0,1,.85h1.06a1.06,1.06,0,0,0,1-.85l.59-2.89a1,1,0,0,1,.6-.75,6.82,6.82,0,0,0,1.26-.72,1,1,0,0,1,.95-.14l2.8.93a1.06,1.06,0,0,0,1.26-.48l.53-.92a1.06,1.06,0,0,0-.22-1.33l-2.19-1.94a1,1,0,0,1-.35-.9A6.58,6.58,0,0,0,33,13.93Z"/><path class="cls-29" d="M31.66,13.94a5.2,5.2,0,0,0,0-.58.84.84,0,0,1,.28-.72l1.75-1.55A.85.85,0,0,0,33.83,10l-.43-.74a.85.85,0,0,0-1-.38l-2.21.74a.84.84,0,0,1-.76-.12,5.46,5.46,0,0,0-1-.6.84.84,0,0,1-.48-.6l-.47-2.28a.85.85,0,0,0-.83-.68h-.85a.85.85,0,0,0-.83.68l-.47,2.28a.83.83,0,0,1-.48.6,5.46,5.46,0,0,0-1,.6.84.84,0,0,1-.76.12L20,8.91a.85.85,0,0,0-1,.38l-.43.74a.85.85,0,0,0,.17,1.06l1.75,1.55a.84.84,0,0,1,.28.72,5.2,5.2,0,0,0,0,.58,5.27,5.27,0,0,0,0,.6.84.84,0,0,1-.28.72l-1.75,1.55a.85.85,0,0,0-.17,1.06l.43.74A.85.85,0,0,0,20,19l2.24-.75a.84.84,0,0,1,.76.11,5.45,5.45,0,0,0,1,.58.84.84,0,0,1,.48.6l.47,2.31a.85.85,0,0,0,.83.68h.85a.85.85,0,0,0,.83-.68l.47-2.31a.84.84,0,0,1,.48-.6,5.45,5.45,0,0,0,1-.58.84.84,0,0,1,.76-.11L32.4,19a.85.85,0,0,0,1-.38l.43-.74a.85.85,0,0,0-.17-1.06l-1.75-1.55a.84.84,0,0,1-.28-.72A5.27,5.27,0,0,0,31.66,13.94Z"/><path class="cls-30" d="M18.9,12.48a.82.82,0,0,1,.28.71c0,.14,0,.27,0,.41h1.11c0-.09,0-.19,0-.28a1.94,1.94,0,0,0-.64-1.66L17.45,9.71a.17.17,0,0,1,0-.21l.53-.92a.17.17,0,0,1,.2-.08l2.76.92a1.94,1.94,0,0,0,1.76-.27,6,6,0,0,1,.51-.34l-.8-.8L22,8.25a.82.82,0,0,1-.75.11L18.5,7.44A1.29,1.29,0,0,0,17,8l-.53.92a1.29,1.29,0,0,0,.26,1.6Z"/><path class="cls-30" d="M33.48,15.41a.82.82,0,0,1-.28-.71,6.92,6.92,0,0,0,0-.78,6.77,6.77,0,0,0,0-.74.82.82,0,0,1,.28-.71l2.19-1.94a1.29,1.29,0,0,0,.26-1.6L35.4,8a1.29,1.29,0,0,0-1.52-.58l-2.76.92a.82.82,0,0,1-.75-.11A7.06,7.06,0,0,0,29,7.47a.82.82,0,0,1-.47-.59L28,4a1.29,1.29,0,0,0-1.26-1H25.66A1.29,1.29,0,0,0,24.4,4l-.58,2.85a.82.82,0,0,1-.47.59c-.17.07-.33.16-.49.25l.83.83.11-.06a1.94,1.94,0,0,0,1.11-1.39l.58-2.85a.17.17,0,0,1,.17-.14h1.06a.17.17,0,0,1,.17.14l.58,2.85A1.94,1.94,0,0,0,28.58,8.5a5.93,5.93,0,0,1,1.13.65,1.94,1.94,0,0,0,1.76.27l2.76-.92a.17.17,0,0,1,.2.08l.53.92a.17.17,0,0,1,0,.21l-2.19,1.94a1.94,1.94,0,0,0-.65,1.66,5.53,5.53,0,0,1,0,1.27,1.94,1.94,0,0,0,.64,1.67l2.19,1.94a.17.17,0,0,1,0,.21l-.53.92a.17.17,0,0,1-.2.08l-2.79-.93a1.93,1.93,0,0,0-1.75.27,5.93,5.93,0,0,1-1.1.63,1.94,1.94,0,0,0-1.11,1.39l-.59,2.89a.17.17,0,0,1-.17.14H25.66a.17.17,0,0,1-.17-.14l-.59-2.89a1.94,1.94,0,0,0-1.11-1.39,6,6,0,0,1-1.1-.63,1.94,1.94,0,0,0-1.13-.37,2,2,0,0,0-.62.1l-2.8.93a.17.17,0,0,1-.2-.08l-.53-.92a.17.17,0,0,1,0-.21l2.19-1.94a1.93,1.93,0,0,0,.65-1.67,5.67,5.67,0,0,1,0-.65H19.13a6.93,6.93,0,0,0,0,.78.82.82,0,0,1-.28.71l-2.19,1.94a1.29,1.29,0,0,0-.26,1.6l.53.92a1.29,1.29,0,0,0,1.52.58l2.8-.93a.82.82,0,0,1,.74.11,7.08,7.08,0,0,0,1.3.75.82.82,0,0,1,.47.59l.59,2.89a1.29,1.29,0,0,0,1.26,1h1.06a1.29,1.29,0,0,0,1.26-1L28.57,21a.82.82,0,0,1,.47-.59,7.05,7.05,0,0,0,1.3-.75.83.83,0,0,1,.74-.11l2.8.93a1.29,1.29,0,0,0,1.52-.58l.53-.92a1.29,1.29,0,0,0-.26-1.6Z"/><circle class="cls-31" cx="26.19" cy="13.95" r="5.65"/><path class="cls-30" d="M22.24,11.45a4.56,4.56,0,0,1,1.83-1.57,4.31,4.31,0,0,1,2.26-.39,4.09,4.09,0,0,0-2,.78A3.88,3.88,0,0,0,23,11.88a.45.45,0,1,1-.83-.34l0-.08Z"/><path class="cls-30" d="M22.11,14.15a.45.45,0,0,1-.45-.45c0-.08,0-.16,0-.24a.43.43,0,0,1,.47-.42.45.45,0,0,1,.42.47c0,.06,0,.13,0,.19A.45.45,0,0,1,22.11,14.15Z"/><path class="cls-32" d="M30,16.45A4.55,4.55,0,0,1,28.21,18a4.31,4.31,0,0,1-2.26.4,4.09,4.09,0,0,0,2-.78A3.88,3.88,0,0,0,29.25,16a.45.45,0,1,1,.83.34l0,.08Z"/><path class="cls-32" d="M30.28,13.86a.45.45,0,0,1,.45.45c0,.08,0,.16,0,.24a.43.43,0,0,1-.47.42.45.45,0,0,1-.42-.47c0-.06,0-.13,0-.19A.45.45,0,0,1,30.28,13.86Z"/><path class="cls-32" d="M27.7,14a2.59,2.59,0,0,0-3,0h-1.1v2.12a2.61,2.61,0,0,0,5.21,0V14Z"/><path class="cls-30" d="M26.19,13.81a2.59,2.59,0,0,0-1.51.49h-1.1v.27a2.61,2.61,0,1,0,5.21,0v-.27H27.7A2.59,2.59,0,0,0,26.19,13.81Z"/><path class="cls-9" d="M33,13.93a6.49,6.49,0,0,0,0-.72,1,1,0,0,1,.35-.9l2.19-1.94A1.06,1.06,0,0,0,35.74,9l-.53-.92A1.06,1.06,0,0,0,34,7.65l-2.76.92a1,1,0,0,1-1-.14,6.81,6.81,0,0,0-1.3-.75,1,1,0,0,1-.6-.75l-.58-2.85a1.06,1.06,0,0,0-1-.85H25.66a1.06,1.06,0,0,0-1,.85L24,6.93a1,1,0,0,1-.6.75,6.82,6.82,0,0,0-1.3.75,1,1,0,0,1-1,.14l-2.76-.92a1.06,1.06,0,0,0-1.26.48L16.64,9a1.06,1.06,0,0,0,.22,1.33L19,12.32a1,1,0,0,1,.35.9,6.49,6.49,0,0,0,0,.72,6.58,6.58,0,0,0,0,.75,1,1,0,0,1-.35.9l-2.19,1.94a1.06,1.06,0,0,0-.22,1.33l.53.92a1.06,1.06,0,0,0,1.26.48l2.8-.93a1,1,0,0,1,.95.14,6.82,6.82,0,0,0,1.26.72,1,1,0,0,1,.6.75l.59,2.89a1.06,1.06,0,0,0,1,.85h1.06a1.06,1.06,0,0,0,1-.85l.59-2.89a1,1,0,0,1,.6-.75,6.82,6.82,0,0,0,1.26-.72,1,1,0,0,1,.95-.14l2.8.93a1.06,1.06,0,0,0,1.26-.48l.53-.92a1.06,1.06,0,0,0-.22-1.33l-2.19-1.94a1,1,0,0,1-.35-.9A6.58,6.58,0,0,0,33,13.93Z"/><circle class="cls-33" cx="26.19" cy="13.95" r="2.16"/><circle class="cls-8" cx="26.19" cy="13.95" r="1.19"/><circle class="cls-34" cx="26.19" cy="13.95" r="2.16"/></svg>