<?xml version="1.0" encoding="UTF-8" standalone="no"?>
<svg
   xmlns:dc="http://purl.org/dc/elements/1.1/"
   xmlns:cc="http://creativecommons.org/ns#"
   xmlns:rdf="http://www.w3.org/1999/02/22-rdf-syntax-ns#"
   xmlns:svg="http://www.w3.org/2000/svg"
   xmlns="http://www.w3.org/2000/svg"
   id="svg5088"
   version="1.1"
   viewBox="0 0 18.556197 18.898004"
   height="18.898005mm"
   width="18.556198mm">
  <defs
     id="defs5082">
    <clipPath
       id="clipPath26"
       clipPathUnits="userSpaceOnUse">
      <path
         id="path24"
         d="m 46.87,357.72 h 57.62 v -61.3 H 46.87 Z" />
    </clipPath>
    <clipPath
       id="clipPath68"
       clipPathUnits="userSpaceOnUse">
      <path
         id="path66"
         d="m 134.76,353.97 h 53.44 v -53.8 h -53.44 z" />
    </clipPath>
    <clipPath
       id="clipPath92"
       clipPathUnits="userSpaceOnUse">
      <path
         id="path90"
         d="m 223.45,354.72 h 47.18 v -55.29 h -47.18 z" />
    </clipPath>
    <clipPath
       id="clipPath340"
       clipPathUnits="userSpaceOnUse">
      <path
         id="path338"
         d="m 297.63,333.83 h 56.08 V 295.5 h -56.08 z" />
    </clipPath>
    <clipPath
       id="clipPath220"
       clipPathUnits="userSpaceOnUse">
      <path
         id="path218"
         d="M 378.05,353.71 H 427.8 V 300.43 H 378.05 Z" />
    </clipPath>
    <clipPath
       id="clipPath1224"
       clipPathUnits="userSpaceOnUse">
      <path
         id="path1222"
         d="m 450.12,353.2 h 52.25 v -52.25 h -52.25 z" />
    </clipPath>
    <clipPath
       id="clipPath904"
       clipPathUnits="userSpaceOnUse">
      <path
         id="path902"
         d="m 520.935,347.63 h 55.64 v -41.12 h -55.64 z" />
    </clipPath>
    <clipPath
       id="clipPath1512"
       clipPathUnits="userSpaceOnUse">
      <path
         id="path1510"
         d="m 590.789,353.968 h 54.478 v -53.795 h -54.478 z" />
    </clipPath>
    <clipPath
       id="clipPath384"
       clipPathUnits="userSpaceOnUse">
      <path
         id="path382"
         d="M 46.97,277.28 H 104.4 V 231.61 H 46.97 Z" />
    </clipPath>
    <clipPath
       id="clipPath312"
       clipPathUnits="userSpaceOnUse">
      <path
         id="path310"
         d="m 127.4,282.06 h 68.16 V 240.85 H 127.4 Z" />
    </clipPath>
    <clipPath
       id="clipPath544"
       clipPathUnits="userSpaceOnUse">
      <path
         id="path542"
         d="m 208.18,291.795 h 77.715 V 231.114 H 208.18 Z" />
    </clipPath>
    <clipPath
       id="clipPath144"
       clipPathUnits="userSpaceOnUse">
      <path
         id="path142"
         d="m 309.62,285.63 h 32.112 V 237.28 H 309.62 Z" />
    </clipPath>
    <clipPath
       id="clipPath988"
       clipPathUnits="userSpaceOnUse">
      <path
         id="path986"
         d="m 381.1,282.73 h 43.66 V 240.17 H 381.1 Z" />
    </clipPath>
    <clipPath
       id="clipPath790"
       clipPathUnits="userSpaceOnUse">
      <path
         id="path788"
         d="m 453.3,278.98 h 46.82 V 242.6 H 453.3 Z" />
    </clipPath>
    <clipPath
       id="clipPath1144"
       clipPathUnits="userSpaceOnUse">
      <path
         id="path1142"
         d="m 523.77,273.9 h 51.05 v -26.22 h -51.05 z" />
    </clipPath>
    <clipPath
       id="clipPath1390"
       clipPathUnits="userSpaceOnUse">
      <path
         id="path1388"
         d="m 595.56,285.6 h 44.93 v -45.9 h -44.93 z" />
    </clipPath>
  </defs>
  <metadata
     id="metadata5085">
    <rdf:RDF>
      <cc:Work
         rdf:about="">
        <dc:format>image/svg+xml</dc:format>
        <dc:type
           rdf:resource="http://purl.org/dc/dcmitype/StillImage" />
        <dc:title></dc:title>
      </cc:Work>
    </rdf:RDF>
  </metadata>
  <g
     transform="translate(-72.127779,-82.208766)"
     id="layer1">
    <g
       id="g7855"
       transform="matrix(0.35277777,0,0,-0.35277777,-136.61956,184.31486)">
      <g
         id="g1384">
        <g
           id="g1386" />
        <g
           id="g1438">
          <g
             clip-path="url(#clipPath1390)"
             id="g1436">
            <g
               transform="translate(640.4902,281.2598)"
               id="g1394">
              <path
                 d="M 0,0 -4.34,-4.34 -4.41,-4.27 -8.681,0 -4.34,4.34 Z"
                 style="fill:#ffbb00;fill-opacity:1;fill-rule:nonzero;stroke:none"
                 id="path1392" />
            </g>
            <g
               transform="translate(633.96,274.73)"
               id="g1398">
              <path
                 d="m 0,0 -3.9,-3.9 -2.52,1.82 3.941,3.94 z"
                 style="fill:#ff9e00;fill-opacity:1;fill-rule:nonzero;stroke:none"
                 id="path1396" />
            </g>
            <g
               transform="translate(634.3203,275.23)"
               id="g1402">
              <path
                 d="M 0,0 0.069,-0.07 -0.36,-0.5 -2.84,1.36 -5.33,3.21 -4.271,4.27 Z"
                 style="fill:#ff9e00;fill-opacity:1;fill-rule:nonzero;stroke:none"
                 id="path1400" />
            </g>
            <g
               transform="translate(632.1904,269.3101)"
               id="g1406">
              <path
                 d="m 0,0 v -24.43 c 0,-0.64 -0.521,-1.15 -1.15,-1.15 h -30.3 c -0.63,0 -1.151,0.51 -1.151,1.15 V 5.86 c 0,0.64 0.521,1.15 1.151,1.15 h 21.679 l 2.59,-1.86 -15.16,-15.16 -4.609,-8.95 8.95,4.61 15.869,15.87 z"
                 style="fill:#ffbb00;fill-opacity:1;fill-rule:nonzero;stroke:none"
                 id="path1404" />
            </g>
            <g
               transform="translate(630.0596,270.8301)"
               id="g1410">
              <path
                 d="M 0,0 3.9,3.9 6.15,2.22 v -29.81 c 0,-1.95 -1.589,-3.54 -3.54,-3.54 h -33.559 c -1.96,0 -3.551,1.59 -3.551,3.54 V 5.97 c 0,1.96 1.591,3.55 3.551,3.55 h 27.33 L -1.069,7.61 -5.05,3.63 -7.64,5.49 h -21.679 c -0.63,0 -1.151,-0.51 -1.151,-1.15 v -30.29 c 0,-0.64 0.521,-1.15 1.151,-1.15 H 0.98 c 0.63,0 1.151,0.51 1.151,1.15 v 24.43 z"
                 style="fill:#00607f;fill-opacity:1;fill-rule:nonzero;stroke:none"
                 id="path1408" />
            </g>
            <g
               transform="translate(634.3896,275.1602)"
               id="g1414">
              <path
                 d="M 0,0 -0.069,0.07 -4.34,4.34 -2.58,6.1 1.69,1.83 1.761,1.76 Z"
                 style="fill:#ff9e00;fill-opacity:1;fill-rule:nonzero;stroke:none"
                 id="path1412" />
            </g>
            <g
               transform="translate(631.4805,276.5898)"
               id="g1418">
              <path
                 d="m 0,0 -3.94,-3.94 -2.531,1.81 3.981,3.98 z"
                 style="fill:#ff9e00;fill-opacity:1;fill-rule:nonzero;stroke:none"
                 id="path1416" />
            </g>
            <g
               transform="translate(627.54,272.6499)"
               id="g1422">
              <path
                 d="m 0,0 2.52,-1.82 -15.87,-15.87 -1.15,3.19 z"
                 style="fill:#ff9e00;fill-opacity:1;fill-rule:nonzero;stroke:none"
                 id="path1420" />
            </g>
            <g
               transform="translate(627.54,272.6499)"
               id="g1426">
              <path
                 d="m 0,0 -14.5,-14.5 -3.19,1.15 15.16,15.16 z"
                 style="fill:#ff9e00;fill-opacity:1;fill-rule:nonzero;stroke:none"
                 id="path1424" />
            </g>
            <g
               transform="translate(613.04,258.1499)"
               id="g1430">
              <path
                 d="M 0,0 1.15,-3.19 -3.19,1.15 Z"
                 style="fill:#fafbfc;fill-opacity:1;fill-rule:nonzero;stroke:none"
                 id="path1428" />
            </g>
            <g
               transform="translate(605.2402,250.3501)"
               id="g1434">
              <path
                 d="M 0,0 4.609,8.95 8.95,4.61 Z"
                 style="fill:#fafbfc;fill-opacity:1;fill-rule:nonzero;stroke:none"
                 id="path1432" />
            </g>
          </g>
        </g>
      </g>
      <g
         id="g1440"
         transform="translate(626.4404,280.3501)">
        <path
           d="m 0,0 h -27.33 c -1.96,0 -3.551,-1.59 -3.551,-3.55 v -33.56 c 0,-1.95 1.591,-3.54 3.551,-3.54 H 6.229 c 1.951,0 3.541,1.59 3.541,3.54 V -7.3"
           style="fill:none;stroke:#141414;stroke-width:2;stroke-linecap:round;stroke-linejoin:round;stroke-miterlimit:10;stroke-dasharray:none;stroke-opacity:1"
           id="path1442" />
      </g>
      <g
         id="g1444"
         transform="translate(622.4199,276.3198)">
        <path
           d="m 0,0 h -21.68 c -0.63,0 -1.15,-0.51 -1.15,-1.15 v -30.29 c 0,-0.64 0.52,-1.15 1.15,-1.15 h 30.3 c 0.63,0 1.151,0.51 1.151,1.15 v 24.43"
           style="fill:none;stroke:#141414;stroke-width:2;stroke-linecap:round;stroke-linejoin:round;stroke-miterlimit:10;stroke-dasharray:none;stroke-opacity:1"
           id="path1446" />
      </g>
      <g
         id="g1448"
         transform="translate(614.1904,254.96)">
        <path
           d="m 0,0 -8.95,-4.61 4.609,8.95 15.16,15.16 3.981,3.98 1.059,1.06 1.76,1.76 4.341,4.34 4.34,-4.34 -4.34,-4.34 -1.761,-1.76 -0.429,-0.43 -3.901,-3.9 z"
           style="fill:none;stroke:#141414;stroke-width:2;stroke-linecap:round;stroke-linejoin:round;stroke-miterlimit:10;stroke-dasharray:none;stroke-opacity:1"
           id="path1450" />
      </g>
      <g
         id="g1452"
         transform="translate(631.8096,281.2598)">
        <path
           d="M 0,0 4.271,-4.27"
           style="fill:none;stroke:#141414;stroke-width:2;stroke-linecap:round;stroke-linejoin:round;stroke-miterlimit:10;stroke-dasharray:none;stroke-opacity:1"
           id="path1454" />
      </g>
      <g
         id="g1456"
         transform="translate(630.0498,279.5)">
        <path
           d="M 0,0 4.271,-4.27"
           style="fill:none;stroke:#141414;stroke-width:2;stroke-linecap:round;stroke-linejoin:round;stroke-miterlimit:10;stroke-dasharray:none;stroke-opacity:1"
           id="path1458" />
      </g>
      <g
         id="g1460"
         transform="translate(609.8496,259.2998)">
        <path
           d="M 0,0 3.19,-1.15 4.341,-4.34"
           style="fill:none;stroke:#141414;stroke-width:2;stroke-linecap:round;stroke-linejoin:round;stroke-miterlimit:10;stroke-dasharray:none;stroke-opacity:1"
           id="path1462" />
      </g>
      <g
         id="g1464"
         transform="translate(613.04,258.1499)">
        <path
           d="m 0,0 14.5,14.5 3.94,3.94 0.67,0.67"
           style="fill:none;stroke:#141414;stroke-width:2;stroke-linecap:round;stroke-linejoin:round;stroke-miterlimit:10;stroke-dasharray:none;stroke-opacity:1"
           id="path1466" />
      </g>
      <g
         id="g1468"
         transform="translate(606.8301,252.7598)">
        <path
           d="M 0,0 0.82,-0.82"
           style="fill:none;stroke:#141414;stroke-width:2;stroke-linecap:round;stroke-linejoin:round;stroke-miterlimit:10;stroke-dasharray:none;stroke-opacity:1"
           id="path1470" />
      </g>
    </g>
  </g>
</svg>
