<?xml version="1.0" encoding="utf-8"?>
<!-- Generator: Adobe Illustrator 26.0.0, SVG Export Plug-In . SVG Version: 6.00 Build 0)  -->
<svg version="1.1" id="Layer_1" xmlns="http://www.w3.org/2000/svg" xmlns:xlink="http://www.w3.org/1999/xlink" x="0px" y="0px"
	 viewBox="0 0 64 64" style="enable-background:new 0 0 64 64;" xml:space="preserve">
<style type="text/css">
	.st0{fill:#3E77BF;}
	.st1{fill:#FF8243;}
	.st2{fill:#F94D00;}
	.st3{fill:#952700;}
	.st4{fill:#FFB347;}
	.st5{fill:#FFA500;}
</style>
<g>
	<g>
		<path class="st0" d="M32,1.6C14.9,1.6,1,15.6,1,32.8c0,13.7,8.9,25.4,21.2,29.5c1.5,0.3,2.1-0.7,2.1-1.5c0-0.7,0-2.7,0-5.3
			c-8.6,1.9-10.4-4.2-10.4-4.2c-1.4-3.6-3.4-4.6-3.4-4.6c-2.8-1.9,0.2-1.9,0.2-1.9c3.1,0.2,4.7,3.2,4.7,3.2c2.8,4.8,7.3,3.4,9,2.6
			c0.3-2,1.1-3.4,2-4.2c-6.9-0.8-14.1-3.5-14.1-15.4c0-3.4,1.2-6.2,3.2-8.4c-0.3-0.8-1.4-4,0.3-8.2c0,0,2.6-0.8,8.5,3.2
			c2.5-0.7,5.1-1,7.8-1c2.6,0,5.3,0.4,7.8,1c5.9-4,8.5-3.2,8.5-3.2c1.7,4.3,0.6,7.4,0.3,8.2c2,2.2,3.2,5,3.2,8.4
			c0,12-7.2,14.6-14.2,15.4c1.1,1,2.1,2.9,2.1,5.8c0,4.2,0,7.5,0,8.5c0,0.8,0.6,1.8,2.1,1.5C54.1,58.2,63,46.5,63,32.8
			C63,15.6,49.1,1.6,32,1.6z"/>
	</g>
	<g>
		<path class="st1" d="M32,1.6C14.9,1.6,1,15.6,1,32.8c0,13.7,8.9,25.4,21.2,29.5c1.5,0.3,2.1-0.7,2.1-1.5c0-0.7,0-2.7,0-5.3
			c-8.6,1.9-10.4-4.2-10.4-4.2c-1.4-3.6-3.4-4.6-3.4-4.6c-2.8-1.9,0.2-1.9,0.2-1.9c3.1,0.2,4.7,3.2,4.7,3.2c2.8,4.8,7.3,3.4,9,2.6
			c0.3-2,1.1-3.4,2-4.2c-6.9-0.8-14.1-3.5-14.1-15.4c0-3.4,1.2-6.2,3.2-8.4c-0.3-0.8-1.4-4,0.3-8.2c0,0,2.6-0.8,8.5,3.2
			c2.5-0.7,5.1-1,7.8-1c2.6,0,5.3,0.4,7.8,1c5.9-4,8.5-3.2,8.5-3.2c1.7,4.3,0.6,7.4,0.3,8.2c2,2.2,3.2,5,3.2,8.4
			c0,12-7.2,14.6-14.2,15.4c1.1,1,2.1,2.9,2.1,5.8c0,4.2,0,7.5,0,8.5c0,0.8,0.6,1.8,2.1,1.5C54.1,58.2,63,46.5,63,32.8
			C63,15.6,49.1,1.6,32,1.6z"/>
	</g>
	<path class="st2" d="M48.3,14.6c1.6,4.2,0.6,7.4,0.3,8.1c2,2.2,3.2,5,3.2,8.4c0,12-7.2,14.6-14.2,15.4c1.1,1,2.1,2.9,2.1,5.8
		c0,4.2,0,7.5,0,8.5c0,0.8,0.6,1.8,2.1,1.5C54.1,58.2,63,46.5,63,32.8c0-3.7-0.6-7.2-1.8-10.5C56.9,17.7,52.1,14.7,48.3,14.6z"/>
	<g>
		<path class="st3" d="M25.1,48.2c0.3-0.7,0.8-1.2,1.2-1.6c-3.8-0.4-7.6-1.4-10.4-4.2C18.1,45.8,21.5,47.4,25.1,48.2z"/>
		<path class="st4" d="M2.6,34.9c0-17.2,13.9-31.1,31-31.1c9.5,0,18,4.3,23.7,11.1C51.7,6.8,42.5,1.6,32,1.6C14.9,1.6,1,15.6,1,32.8
			c0,7.7,2.8,14.7,7.3,20.1C4.7,47.8,2.6,41.6,2.6,34.9z"/>
		<path class="st3" d="M41.3,54.4c0-2.9-1-4.8-2.1-5.8c6.9-0.8,14.2-3.4,14.2-15.4c0-3.4-1.2-6.2-3.2-8.4c0.3-0.8,1.4-4-0.3-8.2
			c0,0-0.3-0.1-1-0.1c0.7,3.2-0.1,5.5-0.3,6.2c2,2.2,3.2,5,3.2,8.4c0,12-7.2,14.6-14.2,15.4c1.1,1,2.1,2.9,2.1,5.8
			c0,4.2,0,7.5,0,8.5c0,0.7,0.4,1.6,1.6,1.6C41.3,60.9,41.3,58,41.3,54.4z"/>
		<path class="st3" d="M15.7,54c0.7,1.3,2.8,4.5,8.6,3.9c0-0.7,0-1.5,0-2.4C19.8,56.5,17.2,55.3,15.7,54z"/>
		<path class="st5" d="M16.8,49.9c-0.2-0.3-0.6-0.8-1.1-1.3C16,49.1,16.4,49.6,16.8,49.9z"/>
	</g>
</g>
</svg>
