<?xml version="1.0" ?><svg id="katman_1" style="enable-background:new 0 0 512 512;" version="1.1" viewBox="0 0 512 512" xml:space="preserve" xmlns="http://www.w3.org/2000/svg" xmlns:xlink="http://www.w3.org/1999/xlink"><style type="text/css">
	.st0{fill:#E67D21;}
	.st1{fill:#D35415;}
	.st2{fill:#FFFFFF;}
</style><g><g><circle class="st0" cx="256" cy="256" r="250"/></g><path class="st1" d="M506,256c0-12.8-1-25.4-2.8-37.7c-0.2-0.3-0.5-0.6-0.8-0.9c-22.5-22.5-45-45-67.6-67.5   c-10.6-10.6-21.2-21.1-31.7-31.7c-2.5-2.5-5.4-3.9-8.9-4.2c-3.3-0.4-6.5,0.1-9.7,0.9c-7.4,1.9-14.2,5.2-20.8,9   c-15.5,8.8-29.8,19.3-43.5,30.6C282.7,184.9,248.6,219,218,256.5c-10.4,12.7-20.1,25.9-28.4,40.1c-2.9,4.9-5.4,10-8.2,15.2   c-0.7-0.2-1.4-0.3-2.1-0.5c-6.2-1.8-12.5-2.1-18.7-0.6c-18.4,4.3-30.1,15.9-35.7,33.8c-1,3.1-1.9,6.3-3.1,9.3   c-3.1,7.9-7.4,15-12.9,21.5c-1.6,1.9-2.5,3.9-2.2,6.3c0.3,2.1,1.6,3.6,3,5c32.9,32.9,65.8,65.8,98.8,98.7   c6.1,6.1,12.2,12.2,18.3,18.3c0.3,0.3,0.5,0.5,0.8,0.7c9.3,1,18.7,1.6,28.3,1.6C394.1,506,506,394.1,506,256z"/><path class="st2" d="M401.9,117.5c-8.6-8.6-25.9-3.7-54.3,15.5c-24.2,16.3-53.2,40.9-81.6,69.4c-42.2,42.2-74.3,83.7-85,109.3   c-1.8-0.6-3.6-1.1-5.5-1.5c-11.1-2.2-23.1,0.6-33,7.7c-14.2,10.1-17.9,24.6-18.5,27c-3,11.2-8.6,21.8-16.4,30.8   c-2.5,2.9-2.2,7.2,0.6,9.8c9.9,8.9,22.6,13.3,35.8,13.3c12.7,0,25.9-4.1,37.5-12.5c5.5-3.9,9.6-8.2,10.4-9.1   c9.9-10.6,14.1-24.6,12-37.3c25.1-9,68.9-42.3,113-86.4c28.5-28.5,53.1-57.5,69.4-81.6C405.6,143.3,410.5,126.1,401.9,117.5z    M247.3,296.8L222.5,272c4.3-5.5,8.9-11.2,13.9-17.1l28,28C258.5,288,252.8,292.6,247.3,296.8z M181.8,367.6   c-0.4,0.4-3.8,4-8.3,7.2c-16.2,11.6-36.1,12.9-50.6,4c6.8-9.3,11.8-19.7,14.7-30.6v0c0-0.1,0.1-0.2,0.1-0.4c0-0.1,2.5-11.2,13-18.7   c6.8-4.8,14.8-6.8,22.1-5.3c6,1.2,11.1,4.6,14.2,9.7C193.2,343.3,191,357.7,181.8,367.6z M193.1,318.9c3.4-9.1,10.7-21.4,21-35.6   l21.9,21.9c-15.4,11.1-28.1,18.4-36.7,21.4C199.1,326.5,197,322.1,193.1,318.9z M372.7,167.1c-15.8,22.8-39,49.9-65.5,76.4   c-11.1,11.1-21.9,21.2-32.1,30.3l-29.4-29.4c9.3-10.6,19.5-21.4,30.3-32.2c26.5-26.5,53.6-49.7,76.4-65.5   c28.1-19.4,37.8-19.5,39.6-19.2C392.2,129.3,392.1,139,372.7,167.1z"/></g></svg>