<?xml version="1.0" encoding="utf-8"?>
<!-- Generator: Adobe Illustrator 26.0.0, SVG Export Plug-In . SVG Version: 6.00 Build 0)  -->
<svg version="1.1" id="Layer_1" xmlns="http://www.w3.org/2000/svg" xmlns:xlink="http://www.w3.org/1999/xlink" x="0px" y="0px"
	 viewBox="0 0 24 24" style="enable-background:new 0 0 24 24;" xml:space="preserve">
<style type="text/css">
	.st0{fill:#D9730D;}
</style>
<path class="st0" d="M5.2,22C3.5,22,2,20.5,2,18.8V9.2C2,7.5,3.5,6,5.2,6H11v4c0,1.7,1.3,3,3,3h7c0.4,0,0.7-0.1,1-0.2v5.9
	c0,1.8-1.5,3.2-3.2,3.2H5.2z M6.3,18.8l3.2-3.2v1.7c0,0.4,0.3,0.8,0.8,0.8c0.4,0,0.8-0.3,0.8-0.8v-3.5c0-0.4-0.3-0.8-0.8-0.8H6.8
	C6.3,13,6,13.3,6,13.8s0.3,0.8,0.8,0.8h1.7l-3.2,3.2c-0.3,0.3-0.3,0.8,0,1.1C5.5,19.1,6,19.1,6.3,18.8z M22,11.7
	c-0.3,0.2-0.6,0.3-1,0.3h-7c-1.1,0-2-0.9-2-2V5c0-1.1,0.9-2,2-2h7c1.1,0,2,0.9,2,2v5C23,10.7,22.6,11.4,22,11.7z"/>
</svg>
