<?xml version="1.0" encoding="utf-8"?>
<!-- Generator: Adobe Illustrator 27.1.0, SVG Export Plug-In . SVG Version: 6.00 Build 0)  -->
<svg version="1.1" id="Layer_1" xmlns="http://www.w3.org/2000/svg" xmlns:xlink="http://www.w3.org/1999/xlink" x="0px" y="0px"
	 viewBox="0 0 1760.6 1959.5" style="enable-background:new 0 0 1760.6 1959.5;" xml:space="preserve">
<style type="text/css">
	.st0{fill:none;stroke:#FFFFFF;stroke-width:6;stroke-linecap:round;stroke-linejoin:round;}
	.st1{fill:#FBF2EF;stroke:#070707;stroke-width:6.0002;stroke-linecap:round;stroke-linejoin:round;stroke-miterlimit:4.0001;}
	.st2{fill:#EFAF72;stroke:#000000;stroke-width:6;stroke-linecap:round;stroke-linejoin:round;}
	.st3{fill:none;stroke:#BDBDBD;stroke-width:6;stroke-linecap:round;stroke-linejoin:round;}
	.st4{fill:#F6CED8;stroke:#070707;stroke-width:6;stroke-linecap:round;stroke-linejoin:round;}
	.st5{fill:#F8E0E6;}
	.st6{fill:#FFFBF8;stroke:#070707;stroke-width:6;stroke-linecap:round;stroke-linejoin:round;}
	.st7{font-family:'ArialMT';}
	.st8{font-size:12px;}
	.st9{fill:#C5DCDD;stroke:#000000;stroke-width:6;stroke-linecap:round;stroke-linejoin:round;}
	.st10{fill:none;stroke:#4B556A;stroke-width:6;stroke-miterlimit:10;}
	.st11{fill:#C48270;stroke:#0F0F0F;stroke-width:6;stroke-linecap:round;stroke-linejoin:round;}
	.st12{fill:#E38E32;}
	.st13{fill:#F4F1ED;stroke:#070707;stroke-width:6;stroke-linecap:round;stroke-linejoin:round;}
	.st14{fill:#F9A09B;stroke:#000000;stroke-width:6;stroke-linecap:round;stroke-linejoin:round;}
	.st15{fill:#F2F2F2;stroke:#000000;stroke-width:6;stroke-linecap:round;stroke-linejoin:round;}
	.st16{fill:#848484;stroke:#000000;stroke-width:5.9997;stroke-linecap:round;stroke-linejoin:round;stroke-miterlimit:3.9998;}
	.st17{fill:#3B240B;}
	.st18{fill:none;stroke:#070707;stroke-width:6;stroke-linecap:round;stroke-linejoin:round;}
	.st19{fill:#1C0E0C;}
	.st20{fill:#C48270;}
	.st21{fill:#8A084B;stroke:#000000;stroke-width:6;stroke-linecap:round;stroke-linejoin:round;}
	.st22{fill:#8A084B;stroke:#000000;stroke-width:5.9999;stroke-linecap:round;stroke-linejoin:round;stroke-miterlimit:4;}
	.st23{fill:#D4FFFA;stroke:#070707;stroke-width:6.0002;stroke-linecap:round;stroke-linejoin:round;stroke-miterlimit:4.0001;}
</style>
<path class="st0" d="M36.7,1878.4c15.6-15.5,40.8-15.5,56.4,0l0,0c15.6,15.5,40.8,15.5,56.5,0l4.1-4.1c15.6-15.5,40.8-15.5,56.4,0
	l6.2,6.1c15.6,15.5,40.8,15.5,56.4,0l5.1-5.1c15.6-15.5,40.8-15.5,56.5,0"/>
<path class="st0" d="M277.9,1875.5c15.6-15.5,40.8-15.5,56.5,0l5.7,5.7c15.6,15.5,40.8,15.5,56.5,0l3.5-3.5
	c15.6-15.5,40.8-15.5,56.4,0l0,0c15.6,15.5,40.8,15.5,56.5,0l4.1-4.1c15.6-15.5,40.8-15.5,56.5,0l6.2,6.1
	c15.6,15.5,40.8,15.5,56.4,0l5.1-5.1c15.6-15.5,40.8-15.5,56.5,0"/>
<path class="st0" d="M36.7,1909.4c15.6-15.5,40.8-15.5,56.4,0l0,0c15.6,15.5,40.8,15.5,56.5,0l4.2-4.2c15.6-15.5,40.8-15.5,56.4,0
	l6.2,6.1c15.6,15.5,40.8,15.5,56.4,0l5.1-5.1c15.6-15.5,40.8-15.5,56.5,0"/>
<path class="st0" d="M277.9,1906.5c15.6-15.5,40.8-15.5,56.5,0l5.7,5.7c15.6,15.5,40.8,15.5,56.5,0l3.5-3.5
	c15.6-15.5,40.8-15.5,56.4,0l0,0c15.6,15.5,40.8,15.5,56.5,0l4.1-4.1c15.6-15.5,40.8-15.5,56.5,0l6.2,6.1
	c15.6,15.5,40.8,15.5,56.4,0l5.1-5.1c15.6-15.5,40.8-15.5,56.5,0"/>
<ellipse transform="matrix(0.5257 -0.8506 0.8506 0.5257 376.3689 1374.5253)" class="st1" cx="1420.9" cy="349.7" rx="15.4" ry="15.4"/>
<circle class="st2" cx="1358.9" cy="296.3" r="22"/>
<g id="CHAIR">
	<path class="st3" d="M980.1,1453.4c-11.5,0-20.9,9-20.9,20.2v168.7c0,33.9,28.4,61.3,63.4,61.3h106.9c20.8,0,37.7,16.3,37.7,36.5"
		/>
	<path class="st3" d="M914.8,1453.4c11.5,0,20.8,9,20.8,20.2v168.7c0,33.9-28.4,61.3-63.4,61.3H765.3c-20.8,0-37.7,16.3-37.7,36.5"
		/>
	<ellipse class="st4" cx="947.5" cy="959.9" rx="504" ry="476.8"/>
	<ellipse class="st5" cx="947.5" cy="929" rx="446.6" ry="422.5"/>
	<path class="st6" d="M1253.2,1186.7c18.7,2.8,26,25.8,12.4,38.9c-81,77.7-193.6,125.9-318,125.9c-124.3,0-236.7-48-317.6-125.5
		c-13.7-13.1-6.4-36.1,12.3-38.9c93.9-14.2,197.7-22,306.8-22C1057.1,1165.1,1160,1172.8,1253.2,1186.7z"/>
	<circle class="st3" cx="728.3" cy="1778.6" r="38.6"/>
	<circle class="st3" cx="949.4" cy="1778.6" r="38.6"/>
	<circle class="st3" cx="1167.8" cy="1778.6" r="38.6"/>
</g>
<text transform="matrix(1 0 0 1 1073.8911 1068.8671)" class="st7 st8">faf9f7</text>
<g id="Layer_3">
	<g id="LEGS">
		<path id="HIPS" class="st9" d="M1124.7,881.9c0,0,106.5,176.4,58,260.8s-134.1,115.7-235.2,104.8
			c-256.2-27.6-571.7-224.8-563.7-288.4c10.7-85.9,482.5,12.6,482.5,12.6l42-88.9L1124.7,881.9z"/>
		<g id="LEFT_LEG">
			<path id="LEG" class="st9" d="M386.8,949c-14.2,14.7-118.2,218.6,509.5,366.9l23.6-43.3C919.9,1272.6,499.3,833.2,386.8,949z"/>
			<path id="SHADOW" class="st10" d="M920.8,1272.6c0,0-210.6-220-373.6-307.7"/>
			<path id="FOOT" class="st11" d="M896.3,1315.9c29,5.2,152.2,47.8,179.5,42.1s-16-86.6-33-90s-101,6.1-122.9,4.6
				S896.3,1315.9,896.3,1315.9z"/>
		</g>
		<g id="RIGHT_LEG">
			<path id="LEG-2" class="st9" d="M1045.5,1134.6C936.2,1365.1,624.8,1628,624.8,1628s-23.5-20.4-53.1-21.6
				c0,0,278.6-619.7,436-649.7C1134.9,932.3,1063.8,1095.8,1045.5,1134.6z"/>
			<path id="FOOT-2" class="st11" d="M571.6,1604.9c-27.8,44.3-70.7,137.4-97.7,169.7c-8.8,10.5,68.6,13.6,80.3,4.3
				c16.1-12.8,17.4-60.8,49.4-67c22.4-4.3,44.9-19.2,34.4-40.9c-14.7-30.4-12.6-44.8-12.6-44.8
				C600.1,1597.9,571.6,1604.9,571.6,1604.9z"/>
		</g>
	</g>
	<g id="LEFT_HAND">
		<path id="HAND" class="st11" d="M916.6,549.9c51.1,83.5-16.2,277-47.1,305.9c-57.3,53.6-307.3,46-307.3,46l-10.2-23
			c0,0,137.8-75.1,247.7-81.1c0,0,29.3-150.8,39.1-194C851,549.3,881.3,492.3,916.6,549.9z"/>
		<path id="ARM" class="st12" d="M580.2,880.8c-5.5-13.8-52.7-5.2-71.4,3.6c-15.9,7.4-35.2,27.3-38.4,31.5s-10.2,25.5-10.2,25.5
			s6.8,7.2,15.9-5.3s32.9-26.9,38.8-23.7c13.2,7.1-18.8,9.8-22.3,14.9s-1.8,8.1-1.8,8.1s30.2-1.4,35-2s24.1-9.3,33.5-17.2
			S583.6,889.4,580.2,880.8z"/>
	</g>
	<path id="TORSO" class="st13" d="M1119.9,499.4c15.5,4.6,64,22.7,64,22.7s-4.1,117.3-17.9,145c-57.6,116.2-39.7,223.3-39.7,223.3
		s-136.5,22.7-220,0.8c0,0,10.9-88.4-6.9-99s-47.1-34.3-39-82.2s6.2-173.4,16-181.5s53-29.2,64.2-29.2S1119.9,499.4,1119.9,499.4z"
		/>
	<g id="LAPTOP">
		<path class="st14" d="M693.8,736.2H388.1c-11.5,0-20.9,9.4-20.9,20.9c0,2.5,0.4,4.9,1.3,7.2l77,209.4h357.9l-79.7-216.6
			C719.2,744.6,707.2,736.2,693.8,736.2z"/>
		<path class="st14" d="M687.8,746.8h-298c-11.3,0-20.4,9.1-20.4,20.4c0,2.4,0.4,4.8,1.3,7l75.1,204.2h349l-77.7-211.2
			C712.6,754.9,700.9,746.8,687.8,746.8z"/>
		<path class="st15" d="M445.7,974.4h506.2c11.9,0,21.6,9.7,21.6,21.6v4.8l0,0H467.3c-11.9,0-21.6-9.7-21.6-21.6L445.7,974.4
			L445.7,974.4z"/>
		<path class="st15" d="M693.8,736.2H388.1c-11.5,0-20.9,9.4-20.9,20.9c0,2.5,0.4,4.9,1.3,7.2l77,209.4h357.9l-79.7-216.6
			C719.2,744.6,707.2,736.2,693.8,736.2z"/>
		
			<ellipse transform="matrix(0.6691 -0.7431 0.7431 0.6691 -453.9464 709.9517)" class="st16" cx="570.3" cy="864.8" rx="19.6" ry="24.2"/>
		<rect x="830.5" y="983.8" class="st14" width="21.4" height="7.7"/>
		<rect x="871.4" y="983.8" class="st14" width="21.4" height="7.7"/>
	</g>
	<path class="st17" d="M967.6,270.5c0,0-73.7-34.6-119.4,37.9c-45.8,72.7,17,105-15.8,142.1c-35.5,40.2-80.4,63.7-44,143.3
		c37.1,81.2-57.5,51.2-37.1,141.6h160.5c0,0,69.1-24.2,48.3-83.7s-65.1-67.8-23.5-120.3c31.2-39.5,175.4-31.4,188.4-28
		s68.1,22.3,68.1,22.3s21.9-65.7-9.4-101.8c-39.7-45.7-105.9-12-118-65.7c-8.2-36.2-24-78.2-50.3-86.2
		C987.1,263.4,967.6,270.5,967.6,270.5z"/>
	<path class="st18" d="M961,279.6c0,0-15.5-24.1-94.2,30.8c-48.6,33.9-14.6,103-47.4,140.1c-35.5,40.2-80.4,63.7-44,143.3
		c37.1,81.2-57.5,51.2-37.1,141.6"/>
	<path class="st11" d="M1023.8,396.6c0,0-2.5,54.7,17.5,82.7c13.6,19,1.4,17.5,48.7,22.9c0,0,4.9,70.2-104.6,70.2
		c-81.3,0-48.8-41.1-48.8-41.1s33.9-49.2,19.3-134.7L1023.8,396.6z"/>
	<path class="st19" d="M1024.8,392.4c0,0,2.1,109.9-85.8,109.9c-1.8,0-3.5-0.4-5.1-1.2c4.6-3.2,33.5-26.9,19.2-110.1h71.7
		C1024.8,391,1024.8,391.5,1024.8,392.4L1024.8,392.4z"/>
	<path id="HEAD" class="st11" d="M1027.2,390.6c0,0-12.6,93.9-72.2,94.4c-39.2,0.3-61.9-54.7-71.1-83.6
		c-10.5-32.9,0.6-98.8,56.6-97.9c48.6,0.7,74,67,74,67L1027.2,390.6z"/>
	<path class="st18" d="M1015.8,385.8c0,0-2.4-8.1-0.2-15.5c1.4-4.7,4.7-9,11.5-10.7"/>
	<line class="st18" x1="1027.1" y1="375.7" x2="1015.6" y2="370.4"/>
	<path class="st11" d="M1116.2,530.6c0,0-34.4,89.1,20.6,137c17.7,15.4,43.9,1.3,43.9,1.3"/>
	<path class="st11" d="M1142,621c19.6,62.1,45.6,149.8,45.6,149.8c-103.1,5.6-258.5,68.1-277.5,75.9c-31.4,7-75.9,32.4-84.5,37.6
		c-8,4.6-20.6,17.2-24.4,22.2c-4,5.3-13.3,24.3-13.3,24.3c4.1,2,9,1,11.9-2.5c3.7-4,9.8-13.6,14.8-18.3c-4.5,11.2-8.7,22.9-8.7,22.9
		s11.1,2.7,25.3-1.9c6.8-2.2,14.4-15.3,22.3-23.9s25.4-4.5,42.8-7.5s29.5-28.5,29.5-28.5l-0.2-0.4c45.2,0.8,283.2,2.3,335.1-46.1
		c31-28.9-9.2-217.3-60.3-300.8c-22.5-36.7-56-31.8-71.7-8.4c-5.2,7.8-11.5,12.3-11.8,23.4"/>
	<path class="st18" d="M814.9,933.5c-0.2,0-0.4,0-0.6-0.1c-0.5-0.2-0.8-0.8-0.6-1.3V932c1.3-3.2,13.2-31.2,18.5-34.9
		c9.1-6.6,20.9-15.2,20.9-15.2l1.2,1.7c0,0-11.8,8.6-20.9,15.2c-4,2.9-14.2,25.6-17.8,34C815.6,933.2,815.3,933.4,814.9,933.5z"/>
	<path class="st18" d="M826.2,931.6c-0.6,0.1-1.1-0.3-1.2-0.9c0-0.2,0-0.4,0.1-0.6c0.5-1,11.9-25.7,17.2-29.6
		c9.1-6.6,20.9-15.2,20.9-15.2l1.2,1.7c0,0-11.8,8.6-20.9,15.2c-4,2.9-13.3,21.7-16.5,28.8C826.9,931.3,826.6,931.5,826.2,931.6z"/>
	<path class="st17" d="M1010.8,412.6c0,0-0.2,120.9,65.3,129.6s117.3-34.7,117.3-34.7"/>
	<polyline class="st18" points="929.8,392.2 926.3,421.4 938.6,428.6 	"/>
	
		<ellipse transform="matrix(0.9436 -0.3312 0.3312 0.9436 -74.2368 337.6074)" class="st19" cx="953.5" cy="386.6" rx="5" ry="6.6"/>
	<ellipse transform="matrix(0.9436 -0.3312 0.3312 0.9436 -80.47 323.6031)" class="st19" cx="909.3" cy="397.9" rx="5" ry="6.6"/>
	<path class="st18" d="M937.6,366.5c0,0,8.6-10.3,27.3-1.3"/>
	<path class="st18" d="M892,380.9c0,0,4.9-12.6,22.8-7.2"/>
	<path class="st19" d="M919,298.8c0,0,28.9-12,38.6,16.6s25.4,52.5,57.1,35.9s18.7-38.2,18.7-38.2"/>
	<circle class="st20" cx="1018.8" cy="370.4" r="20.7"/>
	<path class="st18" d="M1011,383c0,0-2.4-8.1-0.2-15.5c1.4-4.7,4.6-9,11.5-10.7"/>
	<line class="st18" x1="1022.3" y1="372.8" x2="1010.8" y2="367.5"/>
	<path class="st21" d="M1009.7,348.4c-5.9-53.8-59.5-84.6-60-84.8l25.8,1.8c3.1,1.1,32.8,5.2,60.6,76.6L1009.7,348.4z"/>
	
		<ellipse transform="matrix(0.9912 -0.1323 0.1323 0.9912 -41.4056 138.9516)" class="st22" cx="1024.9" cy="381.1" rx="24.8" ry="40.5"/>
	
		<ellipse transform="matrix(0.9912 -0.1323 0.1323 0.9912 -41.1839 140.0803)" class="st22" cx="1033.6" cy="380" rx="24.8" ry="40.5"/>
	<path class="st18" d="M938.6,443.4c0,0,19.3,3.3,27.9-15.7"/>
</g>
<path class="st0" d="M1050.6,75.1c15.6-15.5,40.8-15.5,56.4,0l0,0c15.6,15.5,40.8,15.5,56.4,0l4.1-4.1c15.6-15.5,40.8-15.5,56.4,0
	l6.2,6.1c15.6,15.5,40.8,15.5,56.4,0l5.1-5.1c15.6-15.5,40.8-15.5,56.4,0"/>
<path class="st0" d="M1291.7,72.2c15.6-15.5,40.8-15.5,56.4,0l5.7,5.7c15.6,15.5,40.8,15.5,56.4,0l3.5-3.5
	c15.6-15.5,40.8-15.5,56.4,0l0,0c15.6,15.5,40.8,15.5,56.5,0l4.1-4.1c15.6-15.5,40.8-15.5,56.4,0l6.2,6.1
	c15.6,15.5,40.8,15.5,56.4,0l5.1-5.1c15.6-15.5,40.8-15.5,56.4,0"/>
<path class="st0" d="M1050.6,106c15.6-15.5,40.8-15.5,56.4,0l0,0c15.6,15.5,40.8,15.5,56.4,0l4.2-4.2c15.6-15.5,40.8-15.5,56.4,0
	l6.2,6.1c15.6,15.5,40.8,15.5,56.4,0l5.1-5.1c15.6-15.5,40.8-15.5,56.5,0"/>
<path class="st0" d="M1291.7,103.1c15.6-15.5,40.8-15.5,56.4,0l5.7,5.7c15.6,15.5,40.8,15.5,56.4,0l3.5-3.5
	c15.6-15.5,40.8-15.5,56.4,0l0,0c15.6,15.5,40.8,15.5,56.5,0l4.1-4.1c15.6-15.5,40.8-15.5,56.4,0l6.2,6.1
	c15.6,15.5,40.8,15.5,56.4,0l5.1-5.1c15.6-15.5,40.8-15.5,56.4,0"/>
<ellipse transform="matrix(0.5257 -0.8506 0.8506 0.5257 430.689 1359.1869)" class="st23" cx="1434.3" cy="293.3" rx="15.4" ry="15.4"/>
</svg>
