<?xml version="1.0" ?><svg viewBox="0 0 64 64" xmlns="http://www.w3.org/2000/svg"><defs><style>.cls-1{fill:none;}.cls-2{fill:#fdbf00;}.cls-3{fill:#ffcebf;}.cls-4{fill:#4bb9ec;}.cls-5{fill:#f03800;}.cls-6{fill:#d8d8fc;}.cls-7{fill:#61729b;}.cls-8{fill:#fd9200;}</style></defs><title/><g data-name="video promotion" id="video_promotion"><circle class="cls-1" cx="10.825" cy="14.5" r="1.342"/><path class="cls-2" d="M6.857,17.509a1,1,0,0,1,1.011.207,4.369,4.369,0,0,0,1.65.953,1,1,0,0,1,.685.772l.16.865a5.7,5.7,0,0,0,.924,0l.16-.865a1,1,0,0,1,.684-.772,4.364,4.364,0,0,0,1.651-.953,1,1,0,0,1,1.011-.207l.829.294a5.724,5.724,0,0,0,.462-.8l-.669-.571a1,1,0,0,1-.327-.979,4.347,4.347,0,0,0,0-1.906,1,1,0,0,1,.327-.979L16.084,12a5.725,5.725,0,0,0-.462-.8l-.829.294a1,1,0,0,1-1.011-.207,4.364,4.364,0,0,0-1.651-.953,1,1,0,0,1-.684-.772l-.16-.865h0a5.7,5.7,0,0,0-.923,0l-.16.865a1,1,0,0,1-.685.772,4.369,4.369,0,0,0-1.65.953,1,1,0,0,1-1.011.207l-.83-.294a5.824,5.824,0,0,0-.462.8l.67.571a1,1,0,0,1,.326.979,4.377,4.377,0,0,0,0,1.906,1,1,0,0,1-.326.979L5.565,17a5.823,5.823,0,0,0,.462.8Zm3.968-6.351A3.342,3.342,0,1,1,7.483,14.5,3.344,3.344,0,0,1,10.825,11.158Z"/><path d="M3.422,17.035a7.825,7.825,0,0,0,1.506,2.609,1,1,0,0,0,1.088.285l.973-.345a6.374,6.374,0,0,0,1.351.78l.188,1.015a1,1,0,0,0,.79.8,7.794,7.794,0,0,0,3.013,0,1,1,0,0,0,.791-.8l.188-1.015a6.423,6.423,0,0,0,1.351-.78l.973.345a1,1,0,0,0,1.087-.285,7.829,7.829,0,0,0,1.507-2.609,1,1,0,0,0-.3-1.085l-.785-.67a6.359,6.359,0,0,0,0-1.56l.785-.67a1,1,0,0,0,.3-1.085,7.829,7.829,0,0,0-1.507-2.609,1,1,0,0,0-1.087-.285l-.974.345a6.391,6.391,0,0,0-1.35-.78l-.188-1.015a1,1,0,0,0-.791-.8,7.794,7.794,0,0,0-3.013,0,1,1,0,0,0-.79.8L8.339,8.636a6.417,6.417,0,0,0-1.35.78l-.973-.345a1,1,0,0,0-1.088.285,7.826,7.826,0,0,0-1.506,2.609,1,1,0,0,0,.3,1.085l.785.67a6.359,6.359,0,0,0,0,1.56l-.785.67A1,1,0,0,0,3.422,17.035Zm2.813-.6a1,1,0,0,0,.326-.979,4.377,4.377,0,0,1,0-1.906,1,1,0,0,0-.326-.979L5.565,12a5.824,5.824,0,0,1,.462-.8l.83.294a1,1,0,0,0,1.011-.207,4.369,4.369,0,0,1,1.65-.953,1,1,0,0,0,.685-.772l.16-.865a5.7,5.7,0,0,1,.923,0h0l.16.865a1,1,0,0,0,.684.772,4.364,4.364,0,0,1,1.651.953,1,1,0,0,0,1.011.207l.829-.294a5.725,5.725,0,0,1,.462.8l-.669.571a1,1,0,0,0-.327.979,4.347,4.347,0,0,1,0,1.906,1,1,0,0,0,.327.979l.669.571a5.724,5.724,0,0,1-.462.8l-.829-.294a1,1,0,0,0-1.011.207,4.364,4.364,0,0,1-1.651.953,1,1,0,0,0-.684.772l-.16.865a5.7,5.7,0,0,1-.924,0l-.16-.865a1,1,0,0,0-.685-.772,4.369,4.369,0,0,1-1.65-.953,1,1,0,0,0-1.011-.207l-.83.294a5.823,5.823,0,0,1-.462-.8Z"/><path d="M10.825,17.842A3.342,3.342,0,1,0,7.483,14.5,3.344,3.344,0,0,0,10.825,17.842Zm0-4.684A1.342,1.342,0,1,1,9.483,14.5,1.343,1.343,0,0,1,10.825,13.158Z"/><rect class="cls-3" height="4.154" width="3.091" x="33" y="54.846"/><path d="M37.091,52.846H32a1,1,0,0,0-1,1V60a1,1,0,0,0,1,1h5.091a1,1,0,0,0,1-1V53.846A1,1,0,0,0,37.091,52.846Zm-1,6.154H33V54.846h3.091Z"/><rect class="cls-4" height="6.703" width="3.091" x="40.636" y="52.297"/><path d="M44.727,50.3H39.636a1,1,0,0,0-1,1V60a1,1,0,0,0,1,1h5.091a1,1,0,0,0,1-1V51.3A1,1,0,0,0,44.727,50.3Zm-1,8.7H40.636V52.3h3.091Z"/><rect class="cls-2" height="10.659" width="3.091" x="48.273" y="48.341"/><path d="M52.364,46.341H47.273a1,1,0,0,0-1,1V60a1,1,0,0,0,1,1h5.091a1,1,0,0,0,1-1V47.341A1,1,0,0,0,52.364,46.341ZM51.364,59H48.273V48.341h3.091Z"/><rect class="cls-5" height="14" width="3.091" x="55.909" y="45"/><path d="M60,43H54.909a1,1,0,0,0-1,1V60a1,1,0,0,0,1,1H60a1,1,0,0,0,1-1V44A1,1,0,0,0,60,43ZM59,59H55.909V45H59Z"/><path class="cls-6" d="M21,33.923l7.129-2.851A1,1,0,0,1,29.5,32v7H59V9H21ZM40,14a8,8,0,1,1-8,8A8,8,0,0,1,40,14ZM32,34H48a1,1,0,0,1,0,2H32a1,1,0,0,1,0-2Z"/><path d="M32,36H48a1,1,0,0,0,0-2H32a1,1,0,0,0,0,2Z"/><path class="cls-4" d="M40,28a6,6,0,1,0-6-6A6,6,0,0,0,40,28Zm-3.45-8.8A1,1,0,0,1,38,18.306l5.6,2.8a1,1,0,0,1,0,1.788l-5.6,2.8A1,1,0,0,1,36.55,24.8Z"/><path d="M40,30a8,8,0,1,0-8-8A8,8,0,0,0,40,30Zm0-14a6,6,0,1,1-6,6A6,6,0,0,1,40,16Z"/><rect class="cls-7" height="2" width="38" x="21" y="5"/><polygon class="cls-5" points="38.55 20.818 38.55 23.182 40.914 22 38.55 20.818"/><path d="M37.024,25.651a1,1,0,0,0,.973.043l5.6-2.8a1,1,0,0,0,0-1.788l-5.6-2.8a1,1,0,0,0-1.447.894v5.6A1,1,0,0,0,37.024,25.651Zm1.526-4.833L40.914,22,38.55,23.182Z"/><polygon class="cls-2" points="23.908 34.914 12 39.677 12 48.823 23.908 53.586 23.908 34.914"/><polygon class="cls-8" points="25.908 54.386 27.5 55.023 27.5 33.477 25.908 34.114 25.908 54.386"/><path class="cls-8" d="M9.25,48.5H10V40H9.25a4.25,4.25,0,0,0,0,8.5Z"/><polygon class="cls-8" points="12 59 13.5 59 13.5 51.577 12 50.977 12 59"/><path d="M60,3H20a1,1,0,0,0-1,1V34.723L10.807,38H9.25a6.25,6.25,0,0,0,0,12.5H10V60a1,1,0,0,0,1,1h3.5a1,1,0,0,0,1-1V52.377l12.629,5.051A1,1,0,0,0,29.5,56.5V41H60a1,1,0,0,0,1-1V4A1,1,0,0,0,60,3ZM27.5,55.023l-1.592-.637V34.114l1.592-.637ZM13.5,59H12V50.977l1.5.6ZM9.25,40H10v8.5H9.25a4.25,4.25,0,0,1,0-8.5ZM12,48.823V39.677l11.908-4.763V53.586ZM59,39H29.5V32a1,1,0,0,0-1.371-.928L21,33.923V9H59ZM59,7H21V5H59Z"/></g></svg>