<?xml version="1.0" ?><!DOCTYPE svg  PUBLIC '-//W3C//DTD SVG 1.1//EN'  'http://www.w3.org/Graphics/SVG/1.1/DTD/svg11.dtd'><svg enable-background="new 0 0 64 64" height="64px" id="Layer_1" version="1.1" viewBox="0 0 64 64" width="64px" xml:space="preserve" xmlns="http://www.w3.org/2000/svg" xmlns:xlink="http://www.w3.org/1999/xlink"><g><g><path d="M1,31.999c0,12.27,7.13,22.875,17.471,27.898L3.683,19.383C1.965,23.237,1,27.504,1,31.999z" fill="#1C769B"/><path d="M32.544,34.71l-9.302,27.028c2.779,0.817,5.714,1.263,8.758,1.263c3.609,0,7.072-0.624,10.294-1.757    c-0.082-0.134-0.159-0.273-0.221-0.427L32.544,34.71z" fill="#1C769B"/><path d="M52.928,30.436c0-3.833-1.378-6.485-2.556-8.549c-1.573-2.557-3.047-4.719-3.047-7.271    c0-2.851,2.161-5.504,5.206-5.504c0.138,0,0.268,0.019,0.4,0.026C47.42,4.084,40.07,0.999,32,0.999    c-10.832,0-20.358,5.557-25.9,13.972c0.728,0.023,1.413,0.038,1.994,0.038c3.241,0,8.263-0.394,8.263-0.394    c1.67-0.1,1.866,2.357,0.196,2.553c0,0-1.679,0.198-3.548,0.297l11.289,33.577l6.785-20.346l-4.827-13.231    c-1.672-0.099-3.254-0.297-3.254-0.297c-1.67-0.099-1.475-2.652,0.198-2.553c0,0,5.119,0.394,8.165,0.394    c3.242,0,8.262-0.394,8.262-0.394c1.672-0.1,1.868,2.357,0.197,2.553c0,0-1.681,0.198-3.547,0.297l11.203,33.322l3.095-10.331    C51.906,36.166,52.928,33.088,52.928,30.436z" fill="#1C769B"/><path d="M59.413,20.314c0,3.145-0.588,6.681-2.359,11.104l-9.468,27.375C56.802,53.421,63,43.435,63,32    c0-5.391-1.377-10.458-3.797-14.874C59.338,18.114,59.413,19.172,59.413,20.314z" fill="#1C769B"/></g><path d="M47.326,14.615c0-2.851,2.161-5.504,5.206-5.504c0.138,0,0.268,0.019,0.4,0.026   C47.42,4.084,40.07,0.999,32,0.999c-10.832,0-20.358,5.557-25.9,13.972c0.728,0.023,1.413,0.038,1.994,0.038   c3.241,0,8.263-0.394,8.263-0.394c1.67-0.1,1.866,2.357,0.196,2.553c0,0-1.679,0.198-3.548,0.297l4.305,12.804   c2.929,1.034,6.102,1.603,9.416,1.603c1.379,0,2.734-0.099,4.059-0.288l0.295-0.887l-4.827-13.231   c-1.672-0.099-3.254-0.297-3.254-0.297c-1.67-0.099-1.475-2.652,0.198-2.553c0,0,5.119,0.394,8.165,0.394   c3.242,0,8.262-0.394,8.262-0.394c1.672-0.1,1.868,2.357,0.197,2.553c0,0-1.681,0.198-3.547,0.297l3.73,11.096   c3.786-2.036,6.994-4.911,9.333-8.36C48.21,18.331,47.326,16.589,47.326,14.615z" fill="#2795B7"/><path d="M32,0.999c-9.727,0-18.391,4.49-24.075,11.498c4.989,1.037,10.468,1.612,16.218,1.612   c10.888,0,20.808-2.057,28.267-5.431C46.958,3.901,39.819,0.999,32,0.999z" fill="#3FB5D1"/></g></svg>